Immortals.2011.PL.BRRip.XviD-RLF
(RLF iNTERNAL FiLES 12.03.03)
                                            
General:

Complete name                    : rlf-immortals.p-int.avi
Format                           : AVI
Format/Info                      : Audio Video Interleave
File size                        : 839 MiB
Duration                         : 1h 50mn
Overall bit rate                 : 1 062 Kbps
Language                         : Polish
Subs                             : N/A 
Encoder                          : Ralf

Video:

Format                           : MPEG-4 Visual
Format profile                   : Advanced Simple@L5
Format settings, BVOP            : 2
Format settings, QPel            : No
Format settings, GMC             : No warppoints
Format settings, Matrix          : H.263
Muxing mode                      : Packed bitstream
Codec ID                         : XVID
Duration                         : 1h 50mn
Bit rate                         : 896 Kbps
Width                            : 688 pixels
Display aspect ratio             : 1.870
Frame rate                       : 23.976 fps
Color space                      : YUV
Chroma subsampling               : 4:2:0
Bit depth                        : 8 bits
Scan type                        : Progressive
Bits/(Pixel*Frame)               : 0.148
Stream size                      : 708 MiB (84%)      

Audio:
                  
Format                           : AC-3
Format/Info                      : Audio Coding 3
Duration                         : 1h 49mn
Bit rate mode                    : Constant
Bit rate                         : 160 Kbps
Channel(s)                       : 2 channels
Channel positions                : Front: L R
Sampling rate                    : 48.0 KHz
Bit depth                        : 16 bits
Stream size                      : 126 MiB (15%)
Alignment                        : Aligned on interleaves
Interleave, duration             : 160 ms (3.84 video frames)


NOTES:

Wiele moich rzeczy nie publikuje tak jak ta... nie powinna byc 
opublikowana... ale powiedzialem sobie... Co tam wy przeciez
tez mozecie sobie ogladnac to samo co ja :) Bez ogolnie przyjetych 
zasad ktorych na polskim p2p i tak malo kto przestrzega.

MOVIE INFO:

Wiele lat po mitycznym zwyciestwie Bogow nad Tytanami na horyzoncie 
pojawia sie nowe zagrozenie. Zadny wladzy krol Hyperion wypowiada 
wojne ludzko┼Ñci. Pladrujac bezbronne, wobec jego brutalnej armii,
ziemie Grecji poszukuje legendarnego Luku ─╛ broni o niewyobrazalnej
mocy, wykutej niegdys w niebiosach przez Boga Wojny, Aresa. Ten kto 
posiadzie bron b┼òdzie dowodzil czekajacymi na uwolnienie Tytanami. 
                                                 
http://www.imdb.com/title/tt1253864/ 
http://www.filmweb.pl/film/Immortals.+Bogowie+i+herosi+3D-2011-485474

                                               
SOURCE:

HDC / DS-Vego (THX)
